#!OML:ASF E:\acrobat2\Project_11_07_03\Capture day 1\Session 1\Acrobat.ASF
:FULLY-SPECIFIED
:DEGREES
257
root 9.41347 21.9455 7.19704 158.068 6.53027 -159.384
lowerback 5.19161 -11.5778 2.91441
upperback 5.76919 -14.6282 5.68263
thorax 3.98303 -6.91419 4.5297
lowerneck 0.188425 -10.476 -2.00274
upperneck 7.00832 -13.8309 -0.579614
head 2.2785 -6.89857 -0.131529
rclavicle 4.01545e-014 -4.13472e-014
rhumerus 37.1161 -37.2944 -7.84388
rradius 49.5901
rwrist -17.4193
rhand -16.4942 -32.3165
rfingers 7.12502
rthumb 9.72337 -62.0721
lclavicle 4.01545e-014 -4.13472e-014
lhumerus 63.3733 -0.244951 49.0616
lradius 31.2541
lwrist 10.0587
lhand -35.3144 -28.0464
lfingers 7.12502
lthumb -8.4482 1.76459
rfemur -53.895 -35.1686 -26.3866
rtibia 72.4806
rfoot -28.1287 -19.2836
rtoes -4.85424
lfemur 2.98438 15.9003 3.21923
ltibia 35.9858
lfoot 8.7036 20.1731
ltoes 39.3404
258
root 9.34364 22.1446 7.39467 157.767 10.0709 -159.576
lowerback 6.01832 -11.8666 3.283
upperback 6.20666 -14.8475 6.11988
thorax 4.04999 -6.96593 4.92323
lowerneck 0.487277 -10.1784 -3.19673
upperneck 8.46235 -13.3517 -0.646372
head 2.79477 -6.67427 0.00116766
rclavicle -6.71892e-014 3.4191e-014
rhumerus 41.2626 -36.683 -12.5708
rradius 49.6186
rwrist -17.6712
rhand -17.7824 -31.9038
rfingers 7.12502
rthumb 8.48037 -61.7135
lclavicle -6.71892e-014 3.4191e-014
lhumerus 63.0717 1.54148 50.3992
lradius 28.7839
lwrist 9.23184
lhand -36.5177 -29.0271
lfingers 7.12502
lthumb -9.60934 0.733769
rfemur -54.4538 -35.3395 -25.145
rtibia 71.9206
rfoot -27.1987 -21.2666
rtoes -11.2038
lfemur 1.11845 18.9447 4.63103
ltibia 40.031
lfoot 5.67577 20.1083
ltoes 43.9607
259
root 9.26918 22.3365 7.60039 157.457 13.7709 -159.578
lowerback 7.11729 -12.2077 3.70489
upperback 6.63409 -15.0717 6.66063
thorax 3.98396 -7.01076 5.46408
lowerneck 0.630706 -9.78257 -4.3097
upperneck 9.98581 -12.653 -1.4765
head 3.30279 -6.3704 -0.110263
rclavicle 2.38542e-014 3.97569e-014
rhumerus 45.4806 -35.3703 -17.2325
rradius 49.472
rwrist -18.0148
rhand -19.0375 -31.9603
rfingers 7.12502
rthumb 7.26891 -61.8154
lclavicle 2.38542e-014 3.97569e-014
lhumerus 62.276 3.53322 51.5855
lradius 26.5418
lwrist 7.79237
lhand -37.9781 -30.6085
lfingers 7.12502
lthumb -11.0181 -0.917657
rfemur -54.2793 -34.8569 -24.0774
rtibia 71.4074
rfoot -27.7475 -19.9667
rtoes -7.07901
lfemur -0.555992 20.8647 6.18715
ltibia 42.4111
lfoot 4.57868 19.3914
ltoes 35.2749
260
root 9.19029 22.519 7.81274 157.262 17.2393 -159.963
lowerback 8.04072 -12.212 3.76258
upperback 7.07304 -14.9318 6.90691
thorax 4.00762 -6.91262 5.83666
lowerneck 1.08263 -9.69787 -4.42654
upperneck 11.0797 -12.3695 -2.6094
head 3.52178 -6.25325 -0.45004
rclavicle -3.12092e-014 7.15625e-014
rhumerus 48.058 -33.9011 -20.7586
rradius 49.2923
rwrist -18.7067
rhand -20.19 -32.5294
rfingers 7.12502
rthumb 6.15636 -62.4199
lclavicle -3.12092e-014 7.15625e-014
lhumerus 61.9172 5.00605 52.598
lradius 24.8204
lwrist 6.20148
lhand -38.7665 -31.2688
lfingers 7.12502
lthumb -11.7785 -1.61995
rfemur -53.9363 -34.3885 -23.4333
rtibia 70.7668
rfoot -28.1096 -18.3462
rtoes -5.23311
lfemur -2.5135 22.1669 6.94499
ltibia 44.2262
lfoot -0.957661 19.8711
ltoes 40.0687
261
root 9.11216 22.6963 8.03311 157.092 20.7408 -160.434
lowerback 8.9142 -12.0642 3.74537
upperback 7.62089 -14.6182 7.00831
thorax 4.13918 -6.73425 6.06829
lowerneck 1.00712 -9.54979 -4.16455
upperneck 12.6597 -11.9451 -3.67997
head 3.99893 -6.05645 -0.881622
rclavicle 1.51275e-013 7.95139e-015
rhumerus 50.2686 -32.4162 -24.3318
rradius 48.8704
rwrist -19.5293
rhand -20.9498 -33.5705
rfingers 7.12502
rthumb 5.42283 -63.4811
lclavicle 1.51275e-013 7.95139e-015
lhumerus 61.7021 6.36307 53.279
lradius 23.4697
lwrist 4.38225
lhand -39.4912 -31.2094
lfingers 7.12502
lthumb -12.4773 -1.60191
rfemur -53.6922 -33.8378 -22.4283
rtibia 70.0911
rfoot -27.7643 -18.103
rtoes -6.51918
lfemur -4.61884 23.0407 7.51806
ltibia 45.002
lfoot -4.91535 20.9291
ltoes 38.8485
262
root 9.04066 22.8663 8.25709 156.88 24.3236 -160.623
lowerback 9.84596 -11.8936 3.92212
upperback 8.32662 -14.2467 7.01771
thorax 4.33456 -6.50498 6.10226
lowerneck 0.813711 -9.25975 -4.0011
upperneck 14.3028 -11.3344 -4.35421
head 4.57818 -5.76113 -1.18519
rclavicle -4.51241e-014 6.99722e-014
rhumerus 52.2494 -30.7637 -28.1149
rradius 48.1969
rwrist -20.2561
rhand -21.0192 -34.5435
rfingers 7.12502
rthumb 5.35578 -64.4558
lclavicle -4.51241e-014 6.99722e-014
lhumerus 61.4369 7.55807 53.3093
lradius 22.3642
lwrist 2.77724
lhand -40.4896 -30.8792
lfingers 7.12502
lthumb -13.4397 -1.33282
rfemur -53.1247 -33.095 -20.9911
rtibia 69.2747
rfoot -26.8822 -19.018
rtoes -10.3563
lfemur -6.78025 23.5116 8.55622
ltibia 45.5512
lfoot -9.10303 20.3263
ltoes 42.0328
263
root 8.97468 23.0233 8.48253 156.777 27.9391 -160.394
lowerback 10.3728 -11.1862 5.12664
upperback 9.59492 -13.1312 6.52674
thorax 4.93113 -5.79618 4.93619
lowerneck -0.37446 -9.43835 -2.43741
upperneck 16.3037 -11.4517 -4.77333
head 4.83298 -5.78319 -1.53692
rclavicle -1.59028e-015 -1.25632e-013
rhumerus 51.9977 -30.6031 -30.775
rradius 47.3769
rwrist -21.1423
rhand -20.9279 -35.192
rfingers 7.12502
rthumb 5.444 -65.1021
lclavicle -1.59028e-015 -1.25632e-013
lhumerus 62.9288 7.36554 52.6971
lradius 21.7006
lwrist 2.0805
lhand -41.5327 -31.8291
lfingers 7.12502
lthumb -14.4449 -2.35186
rfemur -52.1127 -32.1308 -19.3069
rtibia 68.4902
rfoot -27.0814 -19.1667
rtoes -9.33849
lfemur -9.07722 23.6633 10.2525
ltibia 45.7662
lfoot -11.0943 20.7014
ltoes 38.5255
